<svg xmlns="http://www.w3.org/2000/svg" data-v-b1fb1cfa="" width="24" height="24" viewBox="0 0 24 24" class="square-pay__icon"><path d="M3.446.032a3.961 3.961 0 0 0-2.264 1.149C.604 1.761.283 2.344.069 3.198c-.048.193-.052.778-.061 8.652-.009 7.364-.004 8.481.035 8.73a4.038 4.038 0 0 0 2.821 3.254c.606.175.079.166 9.132.166 9.237 0 8.592.014 9.242-.199a4.063 4.063 0 0 0 2.385-2.114c.149-.316.273-.713.32-1.03.017-.117.044-.235.059-.264.035-.065.038-16.833.004-16.812-.013.009-.04-.088-.058-.215a4.163 4.163 0 0 0-.644-1.618 4.874 4.874 0 0 0-.978-.999 4.384 4.384 0 0 0-1.146-.57c-.618-.19-.035-.179-9.21-.175-4.595.002-8.431.014-8.524.028M.015 12c0 4.628.003 6.522.007 4.208.005-2.315.005-6.101 0-8.415C.018 5.478.015 7.372.015 12m5.219-7.564a1.04 1.04 0 0 0-.388.213c-.18.144-.338.374-.406.592-.059.193-.06.263-.06 6.759s.001 6.566.06 6.759c.102.33.35.606.69.768l.165.078h13.41l.197-.097c.253-.123.483-.353.606-.606l.097-.197V5.295l-.097-.197a1.366 1.366 0 0 0-.606-.606l-.197-.097-6.66-.007c-6.372-.006-6.667-.004-6.811.048M9.27 8.728a.815.815 0 0 0-.351.217c-.199.208-.189.043-.189 3.04s-.01 2.832.189 3.04c.053.055.15.129.216.165l.12.065h5.49l.123-.066a.91.91 0 0 0 .361-.388c.034-.082.041-.579.041-2.816 0-2.997.01-2.832-.189-3.04a1.075 1.075 0 0 0-.216-.165l-.12-.065-2.7-.005c-1.485-.003-2.734.005-2.775.018" fill-rule="evenodd"></path></svg>