<svg id="tiktok-icon" width="24" height="24" fill="none" xmlns="http://www.w3.org/2000/svg"><path style="fill:var(--background-fill)" d="M12 23c6.075 0 11-4.925 11-11S18.075 1 12 1 1 5.925 1 12s4.925 11 11 11z" fill="#fff"></path><path style="fill:var(--icon-fill)" fill-rule="evenodd" clip-rule="evenodd" d="M12 24c6.627 0 12-5.373 12-12S18.627 0 12 0 0 5.373 0 12s5.373 12 12 12zm1.595-18.996c-.43 0-.86.001-1.292.008a552.03 552.03 0 0 0-.01 4.496 981.783 981.783 0 0 1-.002 3.392c.001.76.002 1.518-.04 2.279-.005.21-.11.396-.211.577l-.024.043c-.335.553-.951.931-1.594.938-.97.087-1.878-.717-2.014-1.675a11.238 11.238 0 0 0-.005-.141c-.01-.27-.019-.545.083-.797.144-.418.42-.777.785-1.02.499-.352 1.166-.404 1.737-.217 0-.37.007-.738.013-1.107.008-.495.016-.99.01-1.484-1.25-.238-2.585.163-3.538 1.004a4.392 4.392 0 0 0-1.487 2.894c-.01.29-.008.58.007.868.12 1.365.937 2.637 2.1 3.332.701.42 1.524.647 2.347.599 1.342-.023 2.648-.752 3.401-1.87a4.48 4.48 0 0 0 .778-2.3 301.8 301.8 0 0 0 .01-3.365l.001-1.74c.3.199.605.393.933.543.753.363 1.587.538 2.417.565V8.477c-.886-.1-1.796-.396-2.44-1.043-.645-.632-.961-1.541-1.007-2.434-.319.003-.638.003-.958.004z" fill="#000"></path></svg>