<svg width="40" height="40" xmlns="http://www.w3.org/2000/svg"><path fill-rule="evenodd" clip-rule="evenodd" d="M15.707 5.107c.777-.776 2.05-1.564 3.488-2.158C20.63 2.356 22.122 2 23.3 2H34c2.188 0 4 1.691 4 3.9v10.7c0 1.166-.374 2.625-.992 4.052-.615 1.418-1.429 2.707-2.226 3.552l-8.05 8.114L7.615 13.2l8.092-8.093zM6.2 14.614l19.124 19.123-3.131 3.156-.001.001a3.889 3.889 0 0 1-5.485-.001l-.005-.006-.025-.025-.099-.1-.374-.377-1.352-1.363-4.23-4.264a4953.029 4953.029 0 0 0-7.515-7.565 3.889 3.889 0 0 1 0-5.486L6.2 14.614zm9.09 23.69L16 37.6l-.71.704-.002-.002-.007-.007-.025-.025-.098-.099-.374-.378-1.352-1.362-4.23-4.264a4998 4998 0 0 0-7.509-7.56 5.889 5.889 0 0 1 0-8.314l12.6-12.6c1.023-1.024 2.55-1.936 4.138-2.592C20.019.444 21.778 0 23.3 0H34c3.211 0 6 2.509 6 5.9v10.7c0 1.534-.477 3.275-1.158 4.848-.684 1.577-1.617 3.084-2.617 4.14l-.016.016-12.6 12.7-.003.003a5.889 5.889 0 0 1-8.314 0l-.003-.003zM35 7a2 2 0 1 1-4 0 2 2 0 0 1 4 0z" fill="var(--icon-fill)"></path></svg>