<svg xmlns="http://www.w3.org/2000/svg" width="119" height="22"><path d="M17.685 0H3.547A3.547 3.547 0 0 0 0 3.547v14.135a3.55 3.55 0 0 0 3.547 3.55h14.135a3.55 3.55 0 0 0 3.55-3.55V3.547A3.547 3.547 0 0 0 17.682 0h.003zm-.313 16.252c0 .62-.503 1.12-1.12 1.12H4.982c-.616 0-1.12-.5-1.12-1.12V4.982c0-.62.5-1.12 1.12-1.12h11.27c.617 0 1.12.5 1.12 1.12v11.273-.003zm-4.503-2.754c.357 0 .643-.29.643-.646v-4.5a.644.644 0 0 0-.643-.647H8.363a.644.644 0 0 0-.643.646v4.5c0 .357.286.647.643.647h4.506zm13.992-.307h2.319c.117 1.313 1.006 2.336 2.801 2.336 1.602 0 2.588-.792 2.588-1.988 0-1.12-.772-1.623-2.164-1.95l-1.795-.387c-1.95-.424-3.419-1.681-3.419-3.728 0-2.26 2.01-3.807 4.617-3.807 2.764 0 4.542 1.447 4.694 3.594h-2.24c-.27-1.006-1.102-1.603-2.454-1.603-1.43 0-2.415.772-2.415 1.758 0 .985.851 1.584 2.319 1.912l1.778.386c1.95.424 3.284 1.602 3.284 3.67 0 2.628-1.971 4.193-4.79 4.193-3.167 0-4.927-1.72-5.12-4.386h-.003zm18.205 8.041v-3.845l.152-1.687h-.152c-.529 1.213-1.649 1.874-3.163 1.874-2.445 0-4.264-1.989-4.264-5.041 0-3.053 1.819-5.041 4.264-5.041 1.497 0 2.558.701 3.163 1.8h.152v-1.61h2.01v13.547h-2.162v.003zm.076-8.696c0-1.95-1.193-3.088-2.652-3.088s-2.652 1.137-2.652 3.088c0 1.95 1.193 3.088 2.652 3.088 1.46 0 2.652-1.138 2.652-3.088zm3.688 1.003V7.685h2.16v5.664c0 1.535.74 2.274 1.972 2.274 1.514 0 2.5-1.079 2.5-2.766V7.685h2.16v9.702h-2.008v-2.01h-.152c-.474 1.29-1.515 2.2-3.126 2.2-2.313 0-3.506-1.477-3.506-4.035v-.003zm10.108 1.137c0-1.819 1.27-2.88 3.524-3.012l2.673-.17v-.757c0-.91-.664-1.459-1.84-1.459-1.079 0-1.725.55-1.894 1.328H59.24c.228-1.971 1.856-3.109 4.055-3.109 2.483 0 3.998 1.062 3.998 3.109v6.784h-2.01v-1.802h-.151c-.456 1.194-1.4 1.989-3.223 1.989-1.821 0-2.974-1.176-2.974-2.898l.003-.003zm6.197-1.193v-.512l-2.179.152c-1.175.077-1.705.512-1.705 1.384 0 .74.606 1.269 1.46 1.269 1.535 0 2.424-.986 2.424-2.293zm3.769 3.904V7.685h2.009V9.54h.152c.283-1.269 1.251-1.856 2.69-1.856h.985v1.95h-1.23c-1.401 0-2.445.91-2.445 2.635v5.114h-2.161v.003zm15.72-4.454h-7.372c.114 1.781 1.366 2.784 2.749 2.784 1.175 0 1.912-.474 2.33-1.269h2.14c-.587 1.97-2.312 3.126-4.49 3.126-2.86 0-4.87-2.14-4.87-5.041 0-2.901 2.065-5.041 4.89-5.041 2.825 0 4.699 1.95 4.699 4.377 0 .474-.038.72-.076 1.061v.003zm-2.064-1.497c-.077-1.345-1.194-2.254-2.56-2.254-1.289 0-2.368.816-2.634 2.254h5.194zm7.395 5.95V4.127h4.889c2.822 0 4.547 1.439 4.547 4.035 0 2.597-1.726 4.036-4.547 4.036h-2.635v5.193h-2.254v-.003zm2.254-7.219h2.71c1.346 0 2.217-.681 2.217-2.009 0-1.327-.871-2.009-2.216-2.009h-2.71v4.018zm7.293 4.51c0-1.82 1.269-2.881 3.523-3.013l2.673-.17v-.757c0-.91-.664-1.459-1.839-1.459-1.079 0-1.649.55-1.819 1.328h-2.161c.228-1.971 1.781-3.109 3.98-3.109 2.482 0 3.997 1.062 3.997 3.109v6.784h-2.009v-1.802h-.152c-.456 1.194-1.404 1.989-3.222 1.989-1.819 0-2.974-1.176-2.974-2.898l.003-.003zm6.196-1.194v-.512l-2.178.152c-1.176.077-1.705.512-1.705 1.384 0 .74.605 1.269 1.459 1.269 1.535 0 2.424-.986 2.424-2.293zm3.143 7.465v-1.912h1.629c.854 0 1.328-.266 1.629-1.006l.19-.491-4.091-9.852h2.407l2.102 5.474.494 1.591h.152l.474-1.59 1.988-5.475h2.313l-4.111 10.685c-.74 1.913-1.705 2.576-3.43 2.576h-1.746z" fill="var(--icon-fill)"></path></svg>