<svg width="16" height="16" fill="none" xmlns="http://www.w3.org/2000/svg"><path d="m9.606 9.333-.04.04-.035.044-.526.66A9.316 9.316 0 0 1 5.94 7.036l.683-.581.037-.032.034-.036a1.68 1.68 0 0 0 .394-1.673l-.002-.009-.003-.008A6.435 6.435 0 0 1 6.76 2.66C6.76 1.748 6.012 1 5.1 1H2.793c-.303 0-.716.063-1.087.311A1.585 1.585 0 0 0 1 2.66C1 9.406 6.601 15 13.34 15a1.59 1.59 0 0 0 1.326-.681c.253-.361.334-.774.334-1.106v-2.3c0-.912-.748-1.66-1.66-1.66-.71 0-1.397-.115-2.039-.322a1.652 1.652 0 0 0-1.695.402z" stroke="var(--icon-fill)" stroke-width="2"></path></svg>