<svg width="40" height="40" xmlns="http://www.w3.org/2000/svg"><path d="M23 15a1 1 0 1 0 0 2v-2zm10 2a1 1 0 1 0 0-2v2zm-10 2a1 1 0 1 0 0 2v-2zm7 2a1 1 0 1 0 0-2v2zm-7 2a1 1 0 1 0 0 2v-2zm8 2a1 1 0 1 0 0-2v2zm-15.392.51a1 1 0 0 0 1.585-1.22l-1.585 1.22zm-9-1.22a1 1 0 0 0 1.585 1.22l-1.585-1.22zM37 32H3v2h34v-2zM3 32c-.548 0-1-.452-1-1H0c0 1.652 1.348 3 3 3v-2zm-1-1V9H0v22h2zM2 9c0-.548.452-1 1-1V6C1.348 6 0 7.348 0 9h2zm1-1h34V6H3v2zm34 0c.548 0 1 .452 1 1h2c0-1.652-1.348-3-3-3v2zm1 1v22h2V9h-2zm0 22c0 .548-.452 1-1 1v2c1.652 0 3-1.348 3-3h-2zM23 17h10v-2H23v2zm0 4h7v-2h-7v2zm0 4h8v-2h-8v2zm-9.1-7a2 2 0 0 1-2 2v2a4 4 0 0 0 4-4h-2zm-2 2a2 2 0 0 1-2-2h-2a4 4 0 0 0 4 4v-2zm-2-2a2 2 0 0 1 2-2v-2a4 4 0 0 0-4 4h2zm2-2a2 2 0 0 1 2 2h2a4 4 0 0 0-4-4v2zm5.293 8.29c-1.184-1.539-3.173-2.59-5.293-2.59v2c1.48 0 2.891.748 3.708 1.81l1.585-1.22zM11.9 21.7c-2.12 0-4.109 1.051-5.292 2.59l1.585 1.22c.816-1.062 2.227-1.81 3.707-1.81v-2z" fill="var(--icon-fill)"></path></svg>