<svg width="64" height="64" xmlns="http://www.w3.org/2000/svg"><path d="M64 32c0 17.673-14.327 32-32 32C14.327 64 0 49.673 0 32 0 14.327 14.327 0 32 0c17.673 0 32 14.327 32 32z" fill="var(--background-fill)"></path><path fill-rule="evenodd" clip-rule="evenodd" d="M28.372 28.25c1.196 0 2.166-1.007 2.166-2.25s-.97-2.25-2.166-2.25-2.166 1.007-2.166 2.25.97 2.25 2.166 2.25zm-1.288 3.913a1 1 0 0 0-1.562.154L21.42 38.71a1 1 0 0 0 .841 1.54h19.504a1 1 0 0 0 .857-1.515l-5.552-9.23a1 1 0 0 0-1.65-.094l-4.173 5.42a1 1 0 0 1-1.513.083l-2.649-2.752z" fill="var(--icon-fill)"></path></svg>