<svg width="40" height="40" xmlns="http://www.w3.org/2000/svg"><path d="M35 8h.974a.974.974 0 0 0-.285-.689l-.69.689zm-7-7 .689-.689a.974.974 0 0 0-.69-.285V1zm6 33.026H10v1.948h24v-1.948zm-24 0c-.042 0-.06-.007-.06-.007s.003 0 .008.004a.1.1 0 0 1 .03.03l.003.007s-.007-.018-.007-.06H8.026c0 .521.178 1.032.56 1.414.382.382.893.56 1.414.56v-1.948zM9.974 34V2H8.026v32h1.948zm0-32 .001-.011c-.001.003-.001.002.002-.002a.058.058 0 0 1 .018-.01c.007-.003.01-.003.005-.003V.026C9.026.026 8.026.8 8.026 2h1.948zm24.051 32v.011c0-.003.001-.002-.002.002a.06.06 0 0 1-.018.01c-.007.003-.01.003-.005.003v1.948c.974 0 1.974-.774 1.974-1.974h-1.949zm1.95 0V8h-1.95v26h1.95zm-.286-26.689-7-7-1.378 1.378 7 7 1.378-1.378zM27.999.026H10v1.948h18V.026z" fill="var(--icon-fill)"></path><path d="M28 1v7h7" stroke="var(--icon-fill)" stroke-width="1.949" stroke-linejoin="round"></path><path d="M31 37.998h.974a.974.974 0 0 1-.069.36l-.905-.36zM8.5 3.924a.974.974 0 1 1 0 1.949V3.924zM6 5.873a.18.18 0 0 0-.058.007l.007-.005a.1.1 0 0 0 .03-.029l.003-.006s-.007.02-.007.061h-1.95c0-.521.178-1.032.56-1.415.382-.383.893-.562 1.415-.562v1.949zm-.025.028v32.097h-1.95V5.901h1.95zm0 32.097v.012c0 .001 0 .001 0 0l.004.004a.06.06 0 0 0 .017.01c.007.003.009.003.004.003v1.948c-.976 0-1.974-.778-1.974-1.977h1.949zm.025.029h24v1.948H6v-1.948zm24 0c-.132 0-.2.056-.186.046a.657.657 0 0 0 .112-.131 1.808 1.808 0 0 0 .17-.31c.001 0 .001 0 0 0v.004c-.001 0-.001.001.904.362l.905.361v.002l-.002.002a.374.374 0 0 1-.002.006l-.007.017a2.646 2.646 0 0 1-.094.203 3.73 3.73 0 0 1-.276.468 2.54 2.54 0 0 1-.52.559 1.64 1.64 0 0 1-1.004.36v-1.95zm1-.029h-.974v-3.009h1.948v3.009H31zM6 3.924h2.5v1.949H6V3.924z" fill="var(--icon-fill)"></path></svg>