<svg width="40" height="40" xmlns="http://www.w3.org/2000/svg"><path d="M2 19a1 1 0 1 0 0 2v-2zm36 2a1 1 0 1 0 0-2v2zM21 8a1 1 0 1 0-2 0h2zm-2 24a1 1 0 1 0 2 0h-2zm7-13.7-.676-.737a.892.892 0 0 0-.031.03L26 18.3zm-12 0 .708-.707a.986.986 0 0 0-.032-.03l-.675.737zm0 4.7a1 1 0 1 0 0 2v-2zm12 2a1 1 0 1 0 0-2v2zM2 21h36v-2H2v2zM19 8v24h2V8h-2zm6.293 9.593c-.099.099-.415.283-1.02.49-.559.193-1.23.361-1.892.501a32.888 32.888 0 0 1-2.491.422l-.01.001h-.001L20 20l.122.993h.001l.004-.001c.003 0 .007 0 .012-.002.01 0 .025-.003.044-.005a27.755 27.755 0 0 0 .752-.108 35.006 35.006 0 0 0 1.859-.336c.7-.148 1.46-.336 2.13-.566.623-.214 1.332-.517 1.783-.968l-1.414-1.414zM20 20l.925.38v-.002l.004-.008.013-.03.05-.121c.045-.105.11-.258.192-.445.163-.375.392-.885.654-1.427a23.39 23.39 0 0 1 .839-1.596c.297-.508.55-.864.73-1.044l-1.414-1.414c-.37.37-.73.914-1.042 1.447a25.492 25.492 0 0 0-.914 1.737 43.527 43.527 0 0 0-.957 2.13l-.004.01v.002l-.001.001L20 20zm3.407-4.293a2.28 2.28 0 0 1 1.328-.663c.446-.05.77.074.958.263l1.414-1.414c-.711-.712-1.688-.937-2.592-.837-.907.1-1.816.53-2.522 1.237l1.414 1.414zm2.286-.4c.404.405.515 1.446-.369 2.256l1.352 1.474c1.516-1.39 1.827-3.749.431-5.144l-1.414 1.414zm-12.4 3.7c.452.451 1.161.754 1.784.968.669.23 1.429.418 2.13.566a35.003 35.003 0 0 0 2.61.444l.044.005.012.002h.005L20 20l.122-.993h-.003l-.008-.001a4.733 4.733 0 0 1-.189-.025 32.903 32.903 0 0 1-2.303-.397 16.575 16.575 0 0 1-1.892-.5c-.605-.208-.92-.392-1.02-.491l-1.414 1.414zM20 20l.925-.38-.001-.003-.004-.01a5.06 5.06 0 0 0-.07-.165 43.862 43.862 0 0 0-.887-1.964 25.3 25.3 0 0 0-.914-1.738c-.312-.533-.67-1.077-1.041-1.447l-1.415 1.414c.18.18.433.536.73 1.044.287.488.577 1.053.84 1.596a41.814 41.814 0 0 1 .908 2.023l.003.008v.001L20 20zm-1.992-5.707a4.278 4.278 0 0 0-2.522-1.237c-.905-.1-1.881.126-2.593.837l1.415 1.414c.188-.189.512-.313.957-.263.444.05.935.27 1.328.663l1.415-1.414zm-5.114-.4c-1.396 1.395-1.085 3.754.43 5.144l1.352-1.474c-.884-.81-.773-1.851-.368-2.256l-1.415-1.414zM20 20l-.997-.076v-.01.01a2.68 2.68 0 0 1-.093.403 3.31 3.31 0 0 1-.558 1.054C17.778 22.11 16.585 23 14 23v2c3.115 0 4.922-1.11 5.923-2.381.485-.616.75-1.23.896-1.696a4.668 4.668 0 0 0 .169-.756 2.448 2.448 0 0 0 .009-.086v-.005L20 20zm0 0-.999.051v.005l.001.008.001.02a2.604 2.604 0 0 0 .029.24c.022.147.061.346.13.581.136.468.392 1.088.873 1.708C21.028 23.895 22.842 25 26 25v-2c-2.642 0-3.828-.895-4.385-1.613a3.15 3.15 0 0 1-.533-1.042 2.558 2.558 0 0 1-.083-.398v-.009.012L20 20zM6 32c-1.546 0-2.493-.386-3.063-.964C2.365 30.454 2 29.503 2 28H0c0 1.797.435 3.346 1.513 4.44C2.593 33.535 4.146 34 6 34v-2zm-4-4V12H0v16h2zm0-16c0-1.504.365-2.454.937-3.036C3.507 8.386 4.454 8 6 8V6c-1.854 0-3.407.464-4.487 1.56C.435 8.655 0 10.205 0 12h2zm4-4h28V6H6v2zm28 0c1.546 0 2.493.386 3.063.964.572.582.937 1.532.937 3.036h2c0-1.796-.435-3.346-1.513-4.44C37.407 6.465 35.854 6 34 6v2zm4 4v16h2V12h-2zm0 16c0 1.4-.477 2.35-1.217 2.97-.766.643-1.937 1.03-3.483 1.03v2c1.854 0 3.533-.462 4.767-1.496C39.327 31.45 40 29.901 40 28h-2zm-4.7 4H6v2h27.3v-2z" fill="var(--icon-fill)"></path></svg>